<svg width="247" height="45" viewBox="0 0 247 45" fill="none" xmlns="http://www.w3.org/2000/svg">
<path d="M1 44.385V0.615021M5.06582 44.385V0.615021M11.1645 44.385V0.615021" stroke="#22224A" stroke-width="1.7" stroke-miterlimit="10"/>
<path d="M18.2796 44.385V0.615021" stroke="#22224A" stroke-width="3.7" stroke-miterlimit="10"/>
<path d="M26.4114 44.385V0.615021" stroke="#22224A" stroke-width="7.7" stroke-miterlimit="10"/>
<path d="M33.5262 44.385V0.615021" stroke="#22224A" stroke-width="1.7" stroke-miterlimit="10"/>
<path d="M41.6585 44.385V0.615021" stroke="#22224A" stroke-width="5.7" stroke-miterlimit="10"/>
<path d="M47.7568 44.385V0.615021" stroke="#22224A" stroke-width="1.7" stroke-miterlimit="10"/>
<path d="M52.8392 44.385V0.615021" stroke="#22224A" stroke-width="3.7" stroke-miterlimit="10"/>
<path d="M61.9875 44.385V0.615021M72.1521 44.385V0.615021M76.2179 44.385V0.615021M82.3166 44.385V0.615021M90.4483 44.385V0.615021M94.5141 44.385V0.615021M98.5799 44.385V0.615021M102.646 44.385V0.615021M108.744 44.385V0.615021" stroke="#22224A" stroke-width="1.7" stroke-miterlimit="10"/>
<path d="M118.909 44.385V0.615021" stroke="#22224A" stroke-width="5.7" stroke-miterlimit="10"/>
<path d="M125.008 44.385V0.615021" stroke="#22224A" stroke-width="1.7" stroke-miterlimit="10"/>
<path d="M133.139 44.385V0.615021" stroke="#22224A" stroke-width="5.7" stroke-miterlimit="10"/>
<path d="M141.271 44.385V0.615021" stroke="#22224A" stroke-width="1.7" stroke-miterlimit="10"/>
<path d="M166.682 44.385V0.615021M146.353 44.385V0.615021V44.385ZM154.485 44.385V0.615021V44.385ZM160.583 44.385V0.615021V44.385Z" stroke="#22224A" stroke-width="3.7" stroke-miterlimit="10"/>
<path d="M173.797 44.385V0.615021M179.896 44.385V0.615021M188.028 44.385V0.615021M192.093 44.385V0.615021" stroke="#22224A" stroke-width="1.7" stroke-miterlimit="10"/>
<path d="M193.161 44.385V0.615021M197.227 44.385V0.615021M203.325 44.385V0.615021" stroke="#22224A" stroke-width="1.7" stroke-miterlimit="10"/>
<path d="M210.44 44.385V0.615021" stroke="#22224A" stroke-width="3.7" stroke-miterlimit="10"/>
<path d="M218.572 44.385V0.615021" stroke="#22224A" stroke-width="7.7" stroke-miterlimit="10"/>
<path d="M225.687 44.385V0.615021" stroke="#22224A" stroke-width="1.7" stroke-miterlimit="10"/>
<path d="M233.819 44.385V0.615021" stroke="#22224A" stroke-width="5.7" stroke-miterlimit="10"/>
<path d="M239.918 44.385V0.615021" stroke="#22224A" stroke-width="1.7" stroke-miterlimit="10"/>
<path d="M245 44.385V0.615021" stroke="#22224A" stroke-width="3.7" stroke-miterlimit="10"/>
</svg>
