<svg width="512" height="512" viewBox="0 0 512 512" fill="none" xmlns="http://www.w3.org/2000/svg">
<g clip-path="url(#clip0)">
<path d="M512 255.999L454.039 191.648L463.114 105.498L378.361 87.5548L335.128 12.4521L256.001 47.8153L176.873 12.4521L133.64 87.5548L48.8867 105.498L57.9608 191.648L0 255.999L57.9598 320.351L48.8857 406.501L133.639 424.444L176.872 499.547L256 464.183L335.127 499.547L378.36 424.444L463.113 406.501L454.038 320.351L512 255.999ZM363.322 199.946L234.82 343.914L145.525 254.619L166.764 233.38L233.579 300.195L340.913 179.945L363.322 199.946Z" fill="#04EB84"/>
</g>
<defs>
<clipPath id="clip0">
<rect width="512" height="512" fill="white"/>
</clipPath>
</defs>
</svg>
