<svg width="469" height="133" viewBox="0 0 469 133" fill="none" xmlns="http://www.w3.org/2000/svg">
<g clip-path="url(#clip0)">
<path d="M95.8606 80.9458C92.6775 88.6257 81.5753 103.648 80.7449 110.129C85.1735 105.368 92.37 96.5052 94.7995 93.9709C100.182 88.2724 110.177 77.8124 117.004 77.8124C120.587 77.8124 123.155 80.8844 124.508 83.5109C124.508 83.8335 123.339 83.941 121.433 86.1528C117.634 91.0833 110.438 105.03 110.438 113.662C110.438 117.149 111.391 117.794 113.083 117.794C114.774 117.794 116.573 116.734 117.527 116.734C118.107 117.285 118.449 118.04 118.48 118.838C116.358 120.743 111.822 123.17 109.392 123.17C101.243 123.17 99.3358 118.209 99.3358 111.973C99.3358 108.501 100.289 104.17 105.164 92.9725C101.962 94.4361 99.0585 96.4773 96.5987 98.9935C90.3162 105.029 84.6169 111.643 79.5763 118.746C76.5009 123.078 74.1789 126.426 72.4874 127.302C69.535 125.612 68.2588 122.233 67.6283 119.069C67.659 113.785 70.7345 101.958 75.5629 91.0833C80.9448 78.7955 85.9116 71.346 87.0803 70.8084C90.7246 71.9757 94.369 76.3072 95.8606 80.9458Z" fill="white"/>
<path d="M133.273 81.5909C132.405 79.6242 131.94 77.5039 131.904 75.3549C135.595 75.5699 138.978 75.8771 141.838 75.9846C146.082 67.5829 152.233 58.5667 154.524 57.2918C157.384 57.2918 164.15 59.519 165.519 61.101C161.668 65.9427 158.202 71.0784 155.154 76.4608C158.051 76.4732 160.946 76.3296 163.827 76.0307C164.569 76.8412 164.985 77.8969 164.996 78.9951C160.941 80.3773 156.687 81.0881 152.402 81.0994C145.436 94.616 141.207 108.348 141.207 117.011C141.207 120.175 142.468 121.864 144.698 122.171C148.741 121.66 152.572 120.068 155.785 117.563C156.102 118.041 156.355 118.557 156.538 119.099C155.001 121.526 147.312 126.595 145.006 126.779C138.024 126.564 129.998 120.543 129.998 115.582C129.998 108.716 133.903 94.4624 139.224 81.4834L133.273 81.5909Z" fill="white"/>
<path d="M173.868 109.669C173.868 110.513 173.761 111.466 173.761 112.418C173.761 116.012 174.606 120.866 178.62 120.866C186.308 120.866 193.536 113.186 197.964 108.578C198.616 109.117 199.218 109.713 199.763 110.36C193.428 118.715 185.278 124.721 178.62 126.211C168.902 125.151 163.243 118.531 163.243 110.053C163.243 92.7268 179.112 72.3597 193.059 72.3597C196.227 72.7745 199.302 74.7866 202.147 78.3654C201.04 95.6297 191.844 102.496 173.868 109.669ZM174.714 105.66C185.924 100.069 194.274 91.4058 194.797 81.7906C187.077 82.8504 178.097 92.5578 174.714 105.66Z" fill="white"/>
<path d="M215.279 82.6354C223.936 58.9814 231.548 43.253 238.852 34.3751C242.235 35.0202 249.523 39.2441 250.692 41.0259C239.728 54.0202 231.794 68.2741 224.812 87.5505C218.892 104.032 215.725 117.763 215.725 126.626C215.648 127.651 215.684 128.681 215.832 129.698C215.07 129.692 214.321 129.508 213.643 129.161C212.964 128.815 212.377 128.315 211.926 127.701C211.174 126.507 210.204 125.465 209.066 124.629C207.79 123.784 206.852 119.775 206.852 115.244C206.852 109.146 209.912 97.4268 215.279 82.6354Z" fill="white"/>
<path d="M240.251 82.6354C248.924 58.9814 256.535 43.253 263.824 34.3751C267.207 35.0202 274.496 39.2441 275.664 41.0259C264.67 54.0202 256.797 68.2741 249.769 87.5505C243.849 104.032 240.666 117.763 240.666 126.626C240.59 127.651 240.626 128.681 240.774 129.698C240.012 129.691 239.263 129.506 238.585 129.16C237.907 128.813 237.319 128.314 236.868 127.701C236.116 126.507 235.146 125.465 234.008 124.629C232.747 123.784 231.794 119.775 231.794 115.244C231.794 109.146 234.854 97.4268 240.251 82.6354Z" fill="white"/>
<path d="M266.023 109.669C266.023 110.513 265.915 111.466 265.915 112.418C265.915 116.012 266.761 120.866 270.79 120.866C278.402 120.866 285.69 113.186 290.134 108.578C290.782 109.121 291.384 109.717 291.933 110.36C285.583 118.715 277.448 124.721 270.79 126.211C261.056 125.151 255.413 118.531 255.413 110.053C255.413 92.7268 271.267 72.3597 285.229 72.3597C288.397 72.7745 291.38 74.7866 294.317 78.3654C293.21 95.6297 284.014 102.496 266.023 109.669ZM266.869 105.66C278.079 100.069 286.428 91.4058 286.951 81.7906C279.263 82.8504 270.267 92.5578 266.884 105.66H266.869Z" fill="white"/>
<path d="M328.946 71.9757C336.235 71.9757 340.356 75.7696 340.356 82.5279C340.356 88.979 336.342 95.3072 332.329 95.3072C331.364 95.2352 330.429 94.9412 329.596 94.4482C328.764 93.9553 328.057 93.2768 327.531 92.4656C332.298 88.1342 334.62 84.2175 334.62 80.7462C334.62 78.734 333.774 77.6742 332.19 77.6742C329.438 77.6742 324.686 80.6386 320.765 84.9547C314.772 91.5895 311.457 100.21 311.462 109.146C311.462 114.845 312.738 118.224 315.276 119.391C319.397 118.854 327.008 115.167 333.559 110.298C334.156 110.855 334.533 111.607 334.62 112.418C330.007 118.224 321.303 124.245 316.537 125.09C307.233 124.245 299.729 114.522 299.729 103.448C299.76 87.5505 314.138 71.9757 328.946 71.9757Z" fill="white"/>
<path d="M349.336 81.5909C348.468 79.6242 348.002 77.5039 347.967 75.3549C351.673 75.5699 355.056 75.8771 357.901 75.9846C362.13 67.5829 368.265 58.5667 370.587 57.2918C373.447 57.2918 380.213 59.519 381.581 61.101C377.73 65.9427 374.265 71.0784 371.217 76.4608C374.114 76.4735 377.009 76.3299 379.89 76.0307C380.632 76.8412 381.048 77.8969 381.059 78.9951C377.009 80.3759 372.76 81.0867 368.48 81.0994C361.499 94.616 357.27 108.348 357.27 117.011C357.27 120.175 358.531 121.864 360.761 122.171C364.808 121.657 368.643 120.066 371.863 117.563C372.17 118.044 372.418 118.56 372.601 119.099C371.064 121.526 363.375 126.595 361.069 126.779C354.103 126.564 346.061 120.543 346.061 115.582C346.061 108.716 349.982 94.4624 355.287 81.4834L349.336 81.5909Z" fill="white"/>
<path d="M405.677 111.143C405.651 109.858 405.833 108.577 406.216 107.349C405.047 107.242 397.435 118.101 395.113 120.866C393.906 122.359 392.31 123.491 390.5 124.137C386.072 123.922 380.136 120.866 378.983 115.905C378.905 112.886 379.189 109.87 379.829 106.919C382.366 96.2595 389.87 78.4115 398.758 71.9757C401.187 71.9757 406.046 72.8205 408.153 75.2474C406.892 76.6144 401.08 84.6475 394.729 99.6386C393.36 102.803 390.3 112.418 390.3 116.12C390.292 116.468 390.353 116.814 390.479 117.138C390.606 117.463 390.796 117.759 391.038 118.009C393.145 117.164 396.005 113.677 401.802 105.721C404.662 101.804 409.829 95.3686 412.166 89.1326C413.427 85.6613 415.642 79.5327 420.409 74.9863C424.099 74.9863 429.173 76.7833 430.45 78.3654C425.268 90.73 417.133 102.557 417.133 113.693C417.133 119.714 419.455 122.048 419.455 123.416C419.455 123.738 419.025 123.83 419.025 123.83C417.133 123.83 412.274 121.941 408.983 119.714C406.431 117.487 405.677 113.662 405.677 111.143Z" fill="white"/>
<path d="M463.295 92.1584C462.449 92.0509 462.019 91.5287 461.926 90.6225C461.834 89.7162 463.618 86.6136 463.618 84.924C463.618 82.9119 462.557 81.4373 461.081 81.4373C455.468 81.4373 452.408 88.7178 452.408 102.234C452.408 103.079 452.408 103.294 452.516 103.509C455.468 103.402 457.698 103.294 459.912 103.294C460.02 103.509 460.02 103.601 460.02 104.139C460.024 104.629 459.874 105.107 459.589 105.506C453.039 107.042 452.516 107.196 452.516 108.778C452.516 109.838 452.623 110.897 452.623 112.587C452.623 124.306 445.75 131.909 434.432 133.061C432.182 132.672 430.074 131.701 428.315 130.246C426.556 128.791 425.209 126.903 424.406 124.767C424.406 114.015 433.925 104.922 446.18 104.078C446.18 96.8892 442.905 90.7761 442.905 84.8626C442.905 77.3516 449.456 69.2263 456.867 67.6443C460.035 68.4891 468.17 76.7219 469.015 79.9321C468.692 85.3848 465.509 92.1584 463.295 92.1584ZM446.596 109.561C441.091 110.298 432.003 119.499 432.003 124.352C432.001 125.112 432.194 125.859 432.562 126.523C432.931 127.187 433.464 127.746 434.109 128.146C440.875 125.397 446.596 116.857 446.596 109.561Z" fill="white"/>
<path d="M0 0V128.807H61.1084V0H0ZM18.3294 123.631C11.2252 123.262 12.7014 119.023 9.62603 117.748C7.42711 116.903 6.15082 109.684 6.15082 106.858C6.15082 89.0865 24.4495 36.1261 33.8295 26.4648C37.0126 26.7106 45.839 31.0728 47.1922 34.0525C33.0914 46.8933 17.9758 102.941 17.9758 121.065C17.8749 121.937 17.9966 122.819 18.3294 123.631ZM45.9312 27.6475C43.9784 27.325 42.2715 25.958 42.2715 24.7906C42.3134 24.1427 42.4374 23.5027 42.6406 22.886C41.7371 21.9515 41.2161 20.7133 41.1797 19.4147C41.7237 14.6403 42.9995 9.9779 44.9625 5.59095C48.7299 5.59095 57.2641 9.81487 59.6937 12.979C56.0493 15.9588 47.146 25.3589 45.9312 27.6475Z" fill="white"/>
</g>
<defs>
<clipPath id="clip0">
<rect width="469" height="133" fill="white"/>
</clipPath>
</defs>
</svg>
