<?xml version="1.0"?>
<svg xmlns="http://www.w3.org/2000/svg" xmlns:xlink="http://www.w3.org/1999/xlink" xmlns:svgjs="http://svgjs.com/svgjs" version="1.1" width="512" height="512" x="0" y="0" viewBox="0 0 512 512" style="enable-background:new 0 0 512 512" xml:space="preserve" class=""><g><g xmlns="http://www.w3.org/2000/svg"><path d="m448 260a99.981 99.981 0 0 0 -96-99.91v39.91h-128v-40h-17.34a96.017 96.017 0 0 0 -94.66-80v86.68a100.027 100.027 0 0 0 -64 93.32v4h-12a19.994 19.994 0 0 0 -20 20v40a19.994 19.994 0 0 0 20 20h12v4a99.981 99.981 0 0 0 96 99.91v28.09a19.994 19.994 0 0 0 20 20h8a19.994 19.994 0 0 0 20-20v-28h112v28a19.994 19.994 0 0 0 20 20h8a19.994 19.994 0 0 0 20-20v-28.09a99.981 99.981 0 0 0 96-99.91z" fill="#57a4ff" data-original="#57a4ff" style="" class=""/><g fill="#004fac"><ellipse cx="120" cy="248" rx="16" ry="24" fill="#ffffff" data-original="#004fac" style="" class=""/><path d="m496 280a8 8 0 0 0 -8 8 40.05 40.05 0 0 1 -32 39.19v-67.19a107.994 107.994 0 0 0 -96-107.33v-136.67a8 8 0 0 0 -12.8-6.4l-16.54 12.4-16.53-12.4a8.01 8.01 0 0 0 -9.6 0l-16.53 12.4-16.54-12.4a8.01 8.01 0 0 0 -9.6 0l-16.53 12.4-16.53-12.4a8 8 0 0 0 -12.8 6.4v136h-2.79a104.041 104.041 0 0 0 -101.21-80 8 8 0 0 0 -8 8v81.34a108.033 108.033 0 0 0 -63.93 94.66h-4.07a28.031 28.031 0 0 0 -28 28v40a28.031 28.031 0 0 0 28 28h4.07a108 108 0 0 0 95.93 103.33v20.67a28.031 28.031 0 0 0 28 28h8a28.031 28.031 0 0 0 28-28v-20h96v20a28.031 28.031 0 0 0 28 28h8a28.031 28.031 0 0 0 28-28v-20.67a107.994 107.994 0 0 0 96-107.33v-4.58a56.086 56.086 0 0 0 48-55.42 8 8 0 0 0 -8-8zm-264-248 8.53 6.4a8.01 8.01 0 0 0 9.6 0l16.53-12.4 16.54 12.4a8.01 8.01 0 0 0 9.6 0l16.53-12.4 16.53 12.4a8.01 8.01 0 0 0 9.6 0l8.54-6.4v160h-112zm208 316a91.98 91.98 0 0 1 -88.31 91.92 7.987 7.987 0 0 0 -7.69 7.99v28.09a12.01 12.01 0 0 1 -12 12h-8a12.01 12.01 0 0 1 -12-12v-28a8 8 0 0 0 -8-8h-112a8 8 0 0 0 -8 8v28a12.01 12.01 0 0 1 -12 12h-8a12.01 12.01 0 0 1 -12-12v-28.09a7.987 7.987 0 0 0 -7.69-7.99 91.98 91.98 0 0 1 -88.31-91.92v-4a8 8 0 0 0 -8-8h-12a12.01 12.01 0 0 1 -12-12v-40a12.01 12.01 0 0 1 12-12h12a8 8 0 0 0 8-8v-4a92.05 92.05 0 0 1 58.88-85.86 7.985 7.985 0 0 0 5.12-7.46v-78.32a88.047 88.047 0 0 1 78.77 72.96 8 8 0 0 0 7.89 6.68h9.34v24h-8a8 8 0 0 0 0 16h160a8 8 0 0 0 0-16h-8v-23.21a91.981 91.981 0 0 1 80 91.21z" fill="#ffffff" data-original="#004fac" style="" class=""/><path d="m256 72h8a8 8 0 0 0 0-16h-8a8 8 0 0 0 0 16z" fill="#ffffff" data-original="#004fac" style="" class=""/><path d="m288 72h32a8 8 0 0 0 0-16h-32a8 8 0 0 0 0 16z" fill="#ffffff" data-original="#004fac" style="" class=""/><path d="m256 96h8a8 8 0 0 0 0-16h-8a8 8 0 0 0 0 16z" fill="#ffffff" data-original="#004fac" style="" class=""/><path d="m288 96h32a8 8 0 0 0 0-16h-32a8 8 0 0 0 0 16z" fill="#ffffff" data-original="#004fac" style="" class=""/><path d="m256 120h8a8 8 0 0 0 0-16h-8a8 8 0 0 0 0 16z" fill="#ffffff" data-original="#004fac" style="" class=""/><path d="m288 120h32a8 8 0 0 0 0-16h-32a8 8 0 0 0 0 16z" fill="#ffffff" data-original="#004fac" style="" class=""/></g></g></g></svg>
