<svg id="Capa_1" enable-background="new 0 0 512 512" height="512" viewBox="0 0 512 512" width="512" xmlns="http://www.w3.org/2000/svg"><g id="Time_1_"><circle cx="256" cy="256" fill="#80eaff" r="128"/><path d="m240 160h32v112h-32z" fill="#4db5ff"/><path d="m272 240h48v32h-48z" fill="#4db5ff"/><path d="m240 240h32v32h-32z" fill="#37f"/><circle cx="425.706" cy="86.294" fill="#80eaff" r="48"/><circle cx="86.294" cy="425.706" fill="#80eaff" r="48"/><path d="m371.52 27.52c-34.879-17.6-73.92-27.52-115.52-27.52-141.439 0-256 114.561-256 256 0 41.6 9.92 80.641 27.52 115.52.641-.639 1.6-1.6 2.24-2.24 7.041-7.039 15.041-12.799 24-16.639-13.76-29.121-21.76-62.08-21.76-96.641 0-123.52 100.48-224 224-224 34.561 0 67.52 8 96.641 21.76 9.92 4.801 19.199 10.24 28.16 16 2.238-6.4 5.76-12.16 10.879-17.279 2.881-2.881 6.08-5.121 9.281-7.361-9.281-6.399-19.201-12.479-29.441-17.6zm112.96 112.96c-.641.639-1.6 1.6-2.24 2.24-7.041 7.039-15.041 12.799-24 16.639 13.76 29.121 21.76 62.08 21.76 96.641 0 123.52-100.48 224-224 224-34.561 0-67.52-8-96.641-21.76-9.92-4.801-19.199-10.24-28.16-16-2.238 6.4-5.76 12.16-10.879 17.279-2.881 2.881-6.08 5.121-9.281 7.361 9.281 6.398 19.201 12.479 29.441 17.6 34.879 17.6 73.92 27.52 115.52 27.52 141.439 0 256-114.561 256-256 0-41.6-9.92-80.641-27.52-115.52z" fill="#4db5ff"/><path d="m380.801 69.76c24 16.641 44.799 37.439 61.439 61.439 6.4-2.24 12.16-5.76 17.279-10.879 2.881-2.881 5.121-6.08 7.361-9.281-17.602-25.92-40-48.318-65.92-65.92-3.201 2.24-6.4 4.48-9.281 7.361-5.118 5.12-8.64 10.879-10.878 17.28zm-335.682 331.199c17.602 25.92 40 48.32 65.92 65.92 3.201-2.24 6.4-4.479 9.281-7.359 5.119-5.119 8.641-10.881 10.879-17.279-24-16.641-44.799-37.441-61.439-61.441-6.4 2.24-12.16 5.76-17.279 10.881-2.881 2.878-5.122 6.079-7.362 9.278z" fill="#37f"/></g></svg>