<svg height="512" viewBox="0 0 512 512" width="512" xmlns="http://www.w3.org/2000/svg"><g><g><g fill="#57a4ff"><circle cx="256" cy="288" r="24"/><path d="m256 80c-114.88 0-208 93.12-208 208s93.12 208 208 208 208-93.12 208-208-93.12-208-208-208zm0 376a168 168 0 1 1 168-168 168 168 0 0 1 -168 168z"/><circle cx="256" cy="288" r="24"/><circle cx="256" cy="288" r="24"/></g><path d="m357.823 186.177-16.97 16.97" fill="none"/><path d="m171.147 372.853-16.97 16.97" fill="none"/><path d="m357.823 389.823-16.97-16.97" fill="none"/><path d="m171.147 203.147-16.97-16.97" fill="none"/><path d="m200 16h112v32h-112z" fill="#57a4ff"/></g><g fill="#004fac"><path d="m264 257.013v-41.013a8 8 0 0 0 -16 0v41.013a32 32 0 1 0 16 0zm-8 46.987a16 16 0 1 1 16-16 16.019 16.019 0 0 1 -16 16z"/><path d="m408.74 135.26a214.408 214.408 0 0 0 -120.74-60.92v-18.34h24a8 8 0 0 0 8-8v-32a8 8 0 0 0 -8-8h-112a8 8 0 0 0 -8 8v32a8 8 0 0 0 8 8h24v18.34a216.042 216.042 0 0 0 -120.74 366.4 216.007 216.007 0 0 0 305.48-305.48zm-200.74-95.26v-16h96v16zm64 16v16h-32v-16zm-16 432c-110.28 0-200-89.72-200-200s89.72-200 200-200 200 89.72 200 200-89.72 200-200 200z"/><path d="m256 112c-97.047 0-176 78.953-176 176s78.953 176 176 176 176-78.953 176-176-78.953-176-176-176zm0 336c-88.225 0-160-71.775-160-160s71.775-160 160-160 160 71.775 160 160-71.775 160-160 160z"/><path d="m256 192a8 8 0 0 0 8-8v-40a8 8 0 0 0 -16 0v40a8 8 0 0 0 8 8z"/><path d="m256 384a8 8 0 0 0 -8 8v40a8 8 0 0 0 16 0v-40a8 8 0 0 0 -8-8z"/><path d="m400 280h-41a8 8 0 0 0 0 16h41a8 8 0 0 0 0-16z"/><path d="m160 288a8 8 0 0 0 -8-8h-40a8 8 0 0 0 0 16h40a8 8 0 0 0 8-8z"/><path d="m340.853 211.147a7.981 7.981 0 0 0 5.657-2.342l16.97-16.971a8 8 0 0 0 -11.314-11.314l-16.966 16.97a8 8 0 0 0 5.658 13.657z"/><path d="m165.49 367.2-16.97 16.971a8 8 0 0 0 11.314 11.314l16.971-16.97a8 8 0 1 0 -11.315-11.315z"/><path d="m346.51 367.2a8 8 0 1 0 -11.31 11.31l16.971 16.97a8 8 0 0 0 11.314-11.314z"/><path d="m159.834 180.52a8 8 0 0 0 -11.314 11.314l16.97 16.971a8 8 0 0 0 11.315-11.315z"/></g></g></svg>